<svg xmlns="http://www.w3.org/2000/svg" width="256" height="256" viewBox="0 0 100 100"><rect width="100" height="100" rx="50" fill="#7d6ee7"></rect><path fill="#fff" d="M63.92 22L63.92 22L78.56 22Q79.44 22 80.08 22.64Q80.72 23.28 80.72 24.16L80.72 24.16L80.72 75.84Q80.72 76.72 80.08 77.36Q79.44 78 78.56 78L78.56 78L64.08 78Q63.20 78 62.56 77.36Q61.92 76.72 61.92 75.84L61.92 75.84L61.92 51.04L56.08 62.56Q55.60 63.52 54.64 64.04Q53.68 64.56 52.72 64.56L52.72 64.56L47.28 64.56Q45.92 64.56 45.04 63.84Q44.16 63.12 43.92 62.56L43.92 62.56L38.08 51.04L38.08 75.84Q38.08 76.72 37.44 77.36Q36.80 78 35.92 78L35.92 78L21.44 78Q20.56 78 19.92 77.36Q19.28 76.72 19.28 75.84L19.28 75.84L19.28 24.16Q19.28 23.28 19.92 22.64Q20.56 22 21.44 22L21.44 22L36.08 22Q38.32 22 39.52 24.16L39.52 24.16L50 43.36L60.48 24.16Q61.68 22 63.92 22Z"></path></svg>